<mxfile host="app.diagrams.net" modified="2023-12-21T17:04:29.755Z" agent="Mozilla/5.0 (Macintosh; Intel Mac OS X 10_15_7) AppleWebKit/537.36 (KHTML, like Gecko) Chrome/120.0.0.0 Safari/537.36" etag="eNLZI4czvaHcuFzw0L2Y" version="21.3.8" type="github">
  <diagram name="Page-1" id="PZq0YOHbQ7oVLTurD-o1">
    <mxGraphModel dx="1155" dy="827" grid="1" gridSize="10" guides="1" tooltips="1" connect="1" arrows="1" fold="1" page="1" pageScale="1" pageWidth="850" pageHeight="1100" math="1" shadow="0">
      <root>
        <mxCell id="0" />
        <mxCell id="1" parent="0" />
        <mxCell id="htX8HI7_tb0ZppOs2i4L-1" value="&lt;h1&gt;Usage&lt;/h1&gt;&lt;p&gt;$$\Delta w&amp;nbsp; \Delta b$$&lt;/p&gt;" style="text;html=1;strokeColor=none;fillColor=none;spacing=5;spacingTop=-20;whiteSpace=wrap;overflow=hidden;rounded=0;" vertex="1" parent="1">
          <mxGeometry x="40" y="100" width="190" height="120" as="geometry" />
        </mxCell>
      </root>
    </mxGraphModel>
  </diagram>
</mxfile>
